<svg width="100%" viewBox="0 0 680 160" xmlns="http://www.w3.org/2000/svg">
  <defs>
    <linearGradient id="bg" x1="0" y1="0" x2="1" y2="1">
      <stop offset="0%" stop-color="#0D0D0F"/>
      <stop offset="100%" stop-color="#141418"/>
    </linearGradient>
    <linearGradient id="glow1" x1="0" y1="0" x2="1" y2="1">
      <stop offset="0%" stop-color="#6366F1" stop-opacity="0.18"/>
      <stop offset="100%" stop-color="#6366F1" stop-opacity="0"/>
    </linearGradient>
    <linearGradient id="glow2" x1="1" y1="0" x2="0" y2="1">
      <stop offset="0%" stop-color="#06B6D4" stop-opacity="0.12"/>
      <stop offset="100%" stop-color="#06B6D4" stop-opacity="0"/>
    </linearGradient>
    <linearGradient id="accent-line" x1="0" y1="0" x2="1" y2="0">
      <stop offset="0%" stop-color="#6366F1" stop-opacity="0"/>
      <stop offset="30%" stop-color="#6366F1" stop-opacity="1"/>
      <stop offset="70%" stop-color="#06B6D4" stop-opacity="1"/>
      <stop offset="100%" stop-color="#06B6D4" stop-opacity="0"/>
    </linearGradient>
    <filter id="blur-glow">
      <feGaussianBlur stdDeviation="28" result="blur"/>
    </filter>
  </defs>
  <rect width="680" height="160" fill="url(#bg)"/>
  <ellipse cx="160" cy="80" rx="200" ry="100" fill="url(#glow1)" filter="url(#blur-glow)"/>
  <ellipse cx="540" cy="70" rx="180" ry="90" fill="url(#glow2)" filter="url(#blur-glow)"/>
  <line x1="0" y1="40" x2="680" y2="40" stroke="#ffffff" stroke-width="0.3" opacity="0.04"/>
  <line x1="0" y1="80" x2="680" y2="80" stroke="#ffffff" stroke-width="0.3" opacity="0.04"/>
  <line x1="0" y1="120" x2="680" y2="120" stroke="#ffffff" stroke-width="0.3" opacity="0.04"/>
  <line x1="170" y1="0" x2="170" y2="160" stroke="#ffffff" stroke-width="0.3" opacity="0.03"/>
  <line x1="340" y1="0" x2="340" y2="160" stroke="#ffffff" stroke-width="0.3" opacity="0.03"/>
  <line x1="510" y1="0" x2="510" y2="160" stroke="#ffffff" stroke-width="0.3" opacity="0.03"/>
  <path d="M24 18 L24 10 L32 10" fill="none" stroke="#6366F1" stroke-width="1.2" opacity="0.6" stroke-linecap="round"/>
  <path d="M648 10 L656 10 L656 18" fill="none" stroke="#06B6D4" stroke-width="1.2" opacity="0.6" stroke-linecap="round"/>
  <path d="M24 142 L24 150 L32 150" fill="none" stroke="#6366F1" stroke-width="1.2" opacity="0.6" stroke-linecap="round"/>
  <path d="M648 142 L656 142 L656 150" fill="none" stroke="#06B6D4" stroke-width="1.2" opacity="0.6" stroke-linecap="round"/>
  <circle cx="56" cy="50" r="1.2" fill="#6366F1" opacity="0.5"/>
  <circle cx="64" cy="50" r="1.2" fill="#6366F1" opacity="0.3"/>
  <circle cx="72" cy="50" r="1.2" fill="#6366F1" opacity="0.15"/>
  <circle cx="56" cy="58" r="1.2" fill="#6366F1" opacity="0.25"/>
  <circle cx="64" cy="58" r="1.2" fill="#6366F1" opacity="0.15"/>
  <circle cx="608" cy="100" r="1.2" fill="#06B6D4" opacity="0.5"/>
  <circle cx="616" cy="100" r="1.2" fill="#06B6D4" opacity="0.3"/>
  <circle cx="624" cy="100" r="1.2" fill="#06B6D4" opacity="0.15"/>
  <circle cx="608" cy="108" r="1.2" fill="#06B6D4" opacity="0.25"/>
  <circle cx="616" cy="108" r="1.2" fill="#06B6D4" opacity="0.15"/>
  <text x="340" y="75" text-anchor="middle" font-family="'Segoe UI', 'SF Pro Display', Arial, sans-serif" font-size="36" font-weight="700" letter-spacing="-0.5" fill="#E8E7FF">Zheng Yang</text>
  <text x="340" y="108" text-anchor="middle" font-family="'Segoe UI', 'SF Pro Text', Arial, sans-serif" font-size="13" font-weight="400" letter-spacing="2.5" fill="#9896B8"> SOFTWARE ENGINEER</text>
</svg>
